{"title":"The.Company.You.Keep.2012.480p.BRRip.XviD.AC3-NYDIC","uid":8392272,"size":1877939705,"categoryP":"video","categoryS":"movies","magnet":"?xt=urn:btih:47ca0035d04b9832589fdf3143dc38938ac090a6&amp;dn=The.Company.You.Keep.2012.480p.BRRip.XviD.AC3-NYDIC&amp;tr=udp%3A%2F%2Ftracker.openbittorrent.com%3A80&amp;tr=udp%3A%2F%2Fopen.demonii.com%3A1337&amp;tr=udp%3A%2F%2Ftracker.coppersurfer.tk%3A6969&amp;tr=udp%3A%2F%2Fexodus.desync.com%3A6969","seeders":0,"leechers":1,"uploader":"Gh0stNet","files":2,"time":1366469296,"description":"\tFormat                                   : AVI\nFormat/Info                              : Audio Video Interleave\nFormat profile                           : OpenDML\nFormat settings                          : rec\nFile size                                : 1.75 GiB\nDuration                                 : 2h 4mn\nOverall bit rate                         : 2 005 Kbps\nWriting application                      : AVI-Mux GUI 1.17.8.3, Feb 16 201019:42:50\n\nVideo\nID                                       : 0\nFormat                                   : MPEG-4 Visual\nFormat profile                           : Advanced Simple@L5\nFormat settings, BVOP                    : 2\nFormat settings, QPel                    : No\nFormat settings, GMC                     : No warppoints\nFormat settings, Matrix                  : Default (H.263)\nMuxing mode                              : Packed bitstream\nCodec ID                                 : XVID\nCodec ID/Hint                            : XviD\nDuration                                 : 2h 4mn\nBit rate                                 : 1 564 Kbps\nWidth                                    : 720 pixels\nHeight                                   : 304 pixels\nDisplay aspect ratio                     : 2.35:1\nFrame rate                               : 24.000 fps\nColor space                              : YUV\nChroma subsampling                       : 4:2:0\nBit depth                                : 8 bits\nScan type                                : Progressive\nCompression mode                         : Lossy\nBits/(Pixel*Frame)                       : 0.298\nStream size                              : 1.36 GiB (78%)\nWriting library                          : XviD 64\n\nAudio\nID                                       : 1\nFormat                                   : AC-3\nFormat/Info                              : Audio Coding 3\nMode extension                           : CM (complete main)\nFormat settings, Endianness              : Big\nCodec ID                                 : 2000\nDuration                                 : 2h 1mn\nBit rate mode                            : Constant\nBit rate                                 : 448 Kbps\nChannel(s)                               : 6 channels\nChannel positions                        : Front: L C R, Side: L R, LFE\nSampling rate                            : 48.0 KHz\nBit depth                                : 16 bits\nCompression mode                         : Lossy\nStream size                              : 390 MiB (22%)\nAlignment                                : Aligned on interleaves\nInterleave, duration                     : 66 ms (1.58 video frames)\nInterleave, preload duration             : 192 ms\nTitle                                    : aaa\n\nScreens: &lt;a href=&quot;\nhttp://i.imgur.com/5tkschg.png&quot; rel=&quot;nofollow&quot; target=&quot;_NEW&quot;&gt;\nhttp://i.imgur.com/5tkschg.png&lt;/a&gt; &lt;a href=&quot;\nhttp://i.imgur.com/kQcVUvA.png&quot; rel=&quot;nofollow&quot; target=&quot;_NEW&quot;&gt;\nhttp://i.imgur.com/kQcVUvA.png&lt;/a&gt; &lt;a href=&quot;\nhttp://i.imgur.com/jNjtfBz.png&quot; rel=&quot;nofollow&quot; target=&quot;_NEW&quot;&gt;\nhttp://i.imgur.com/jNjtfBz.png&lt;/a&gt; &lt;a href=&quot;\nhttp://i.imgur.com/g1smokP.png&quot; rel=&quot;nofollow&quot; target=&quot;_NEW&quot;&gt;\nhttp://i.imgur.com/g1smokP.png&lt;/a&gt;","torrent":{"xt":"urn:btih:47ca0035d04b9832589fdf3143dc38938ac090a6","amp;dn":"The.Company.You.Keep.2012.480p.BRRip.XviD.AC3-NYDIC","amp;tr":["udp%3A%2F%2Ftracker.openbittorrent.com%3A80","udp%3A%2F%2Fopen.demonii.com%3A1337","udp%3A%2F%2Ftracker.coppersurfer.tk%3A6969","udp%3A%2F%2Fexodus.desync.com%3A6969"],"infoHash":"47ca0035d04b9832589fdf3143dc38938ac090a6","infoHashBuffer":{"type":"Buffer","data":[71,202,0,53,208,75,152,50,88,159,223,49,67,220,56,147,138,192,144,166]},"announce":[],"urlList":[]}}